# xmcd CD database file
#
# Track frame offsets:
#	150
#	10242
#	21641
#	32994
#	45405
#	57093
#	69584
#	81405
#	93506
#	103932
#	117205
#	128199
#	141667
#	152688
#	165834
#	177173
#	187895
#	201214
#	217210
#	228117
#
# Disc length: 3212 seconds
#
# Revision: 0
# Processed by: cddbd v1.4PL0 Copyright (c) Steve Scherf et al.
# Submitted via: CDex 1.40Release
#
DISCID=1a0c8a14
DTITLE=John Lee Hooker - I'm In The Mood
DYEAR=2001
DGENRE=Blues
TTITLE0=Dimples
TTITLE1=Boom Boom
TTITLE2=This Is Hip
TTITLE3=I'm In The Mood
TTITLE4=I Love You Honey
TTITLE5=Crawlin' Kingsnake
TTITLE6=Boogie Chillun
TTITLE7=I'm Mad Again
TTITLE8=Big Legs, Tight Skirt
TTITLE9=I'm Going Upstairs
TTITLE10=Send Me Your Pillow
TTITLE11=Whiskey And Wimmen
TTITLE12=No Shoes
TTITLE13=I'm So Excited
TTITLE14=What Do You Say
TTITLE15=She's Mine
TTITLE16=Don't Look Back
TTITLE17=It Serves Me Right To Suffer
TTITLE18=Maudie
TTITLE19=Hobo Blues
EXTD=YEAR: 2001 ID3G: 0
EXTT0=
EXTT1=
EXTT2=
EXTT3=
EXTT4=
EXTT5=
EXTT6=
EXTT7=
EXTT8=
EXTT9=
EXTT10=
EXTT11=
EXTT12=
EXTT13=
EXTT14=
EXTT15=
EXTT16=
EXTT17=
EXTT18=
EXTT19=
PLAYORDER=
